<svg xmlns="http://www.w3.org/2000/svg" width="134" height="40" viewBox="0 0 134 40">
  <g fill="none">
    <path fill="#A6A6A6" d="M122.524932,-0.000128555556 L10.6073315,-0.000128555556 C10.1993777,-0.000128555556 9.796319,-0.000128555556 9.38944437,0.00197777778 C9.0488525,0.00395555556 8.71097512,0.009701 8.3671125,0.0145366667 C7.62008397,0.0223506725 6.8748122,0.0807687459 6.13777375,0.189283222 C5.40177054,0.300160043 4.68882317,0.509194454 4.02304475,0.809316556 C3.35808059,1.11197758 2.75048383,1.50525456 2.22229662,1.97488033 C1.69133653,2.44318547 1.24874029,2.98448286 0.911526875,3.57795822 C0.573382769,4.17025235 0.338912554,4.80495009 0.216214375,5.46013022 C0.092349672,6.11448285 0.0256969485,6.77638143 0.016854375,7.43988578 C0.006530375,7.74307911 0.005440125,8.04728111 0,8.350514 L0,31.2079489 C0.005440125,31.5149989 0.006530375,31.8124567 0.016854375,32.1196056 C0.0256996601,32.783077 0.0923523848,33.4449425 0.216214375,34.0992622 C0.338573748,34.7548254 0.573057826,35.3898875 0.911526875,35.9824033 C1.24858717,36.5739595 1.69124565,37.1130655 2.22229662,37.5787667 C2.74848111,38.0504806 3.35647061,38.4440251 4.02304475,38.74437 C4.68881812,39.0452954 5.40168862,39.255574 6.13777375,39.3681611 C6.87493749,39.4758063 7.62013262,39.5342482 8.3671125,39.5429967 C8.71097512,39.5497211 9.0488525,39.5535778 9.38944437,39.5535778 C9.79630787,39.5555556 10.1994,39.5555556 10.6073315,39.5555556 L122.524932,39.5555556 C122.924764,39.5555556 123.331049,39.5555556 123.730882,39.5535778 C124.06986,39.5535778 124.417517,39.5497211 124.756495,39.5429967 C125.502063,39.5347134 126.245855,39.4762679 126.981495,39.3681611 C127.719955,39.2547814 128.435381,39.0445585 129.104368,38.74437 C129.770341,38.4438512 130.377769,38.0503174 130.903503,37.5787667 C131.433184,37.1112416 131.876787,36.57253 132.218033,35.9824033 C132.553962,35.3894564 132.786214,34.7544451 132.906782,34.0992622 C133.030842,33.4448528 133.09986,32.7831344 133.113262,32.1196056 C133.1176,31.8124567 133.1176,31.5149989 133.1176,31.2079489 C133.126278,30.8486856 133.126278,30.4914 133.126278,30.1263022 L133.126278,9.430173 C133.126278,9.068032 133.126278,8.70878844 133.1176,8.350514 C133.1176,8.04728111 133.1176,7.74307911 133.113262,7.43984622 C133.099862,6.77628442 133.030845,6.11453305 132.906782,5.46009067 C132.785878,4.80528958 132.55364,4.17064213 132.218033,3.57791867 C131.531314,2.38836057 130.442375,1.42006956 129.104368,0.809227556 C128.435379,0.509838854 127.719877,0.300859961 126.981495,0.189194222 C126.245983,0.0802016411 125.502113,0.0217632342 124.756495,0.0143982222 C124.417517,0.00957244444 124.06986,0.00377755556 123.730882,0.00184922222 C123.331049,-0.000128555556 122.924764,-0.000128555556 122.524932,-0.000128555556 L122.524932,-0.000128555556 Z"/>
    <path fill="#000" d="M9.39487337,38.6902778 C9.05591687,38.6902778 8.72514837,38.6864211 8.38885075,38.6796967 C7.69218297,38.6716281 6.99714348,38.6177181 6.3094325,38.5184089 C5.66817671,38.4202401 5.04697222,38.2376282 4.46630925,37.9765967 C3.89097065,37.717728 3.36621559,37.378292 2.91214675,36.9712922 C2.45150536,36.5690866 2.06800037,36.1025968 1.77682937,35.5903089 C1.48244993,35.0746915 1.27872183,34.5220118 1.17274187,33.9515222 C1.05829272,33.3385247 0.996370991,32.7186875 0.987510625,32.0973556 C0.980457375,31.8887989 0.971223625,31.1944011 0.971223625,31.1944011 L0.971223625,8.350514 C0.971223625,8.350514 0.981058125,7.66678633 0.98756625,7.46591333 C0.996049982,6.84556558 1.05761164,6.22669028 1.17171837,5.61464411 C1.27789395,5.04259175 1.48177977,4.48831832 1.77631762,3.97101189 C2.06641849,3.45907781 2.44779435,2.99223962 2.90566088,2.58859467 C3.36301277,2.18111451 3.88944642,1.83993074 4.46576412,1.57748544 C5.04509257,1.31729256 5.66512306,1.13596885 6.30508262,1.03958922 C6.99505216,0.939282404 7.69250456,0.885051683 8.3915875,0.877352111 L9.3954185,0.865277778 L123.72543,0.865277778 L124.741254,0.877836667 C125.433978,0.885153651 126.125095,0.938900561 126.808724,1.03862011 C127.455162,1.13620868 128.081654,1.31879758 128.6676,1.58038289 C129.822173,2.1092862 130.761627,2.94606114 131.354288,3.97342478 C131.644124,4.48716004 131.844865,5.03691224 131.949698,5.60402344 C132.065163,6.22109148 132.129786,6.84483013 132.14305,7.47026444 C132.146277,7.75031778 132.146277,8.05113778 132.146277,8.350514 C132.155065,8.72134733 132.155065,9.07431144 132.155065,9.430173 L132.155065,30.1263022 C132.155065,30.4855656 132.155065,30.8361267 132.146277,31.1895556 C132.146277,31.5111422 132.146277,31.8057322 132.141938,32.1089256 C132.128961,32.7231993 132.065415,33.3358046 131.951812,33.9418311 C131.848004,34.516436 131.645385,35.0734297 131.351062,35.5932756 C131.057832,36.1000031 130.67653,36.5624521 130.221207,36.9635789 C129.766729,37.3727659 129.241048,37.7141878 128.664374,37.9747178 C128.080051,38.237756 127.454481,38.4210432 126.808724,38.5184089 C126.121065,38.6182481 125.425959,38.6721615 124.729239,38.6796967 C124.403388,38.6864211 124.062184,38.6902778 123.730882,38.6902778 L122.524932,38.6922556 L9.39487337,38.6902778 Z"/>
    <g fill="#FFF" transform="translate(11.012 7.911)">
      <path d="M16.542879 12.1640058C16.5671949 10.4863846 17.5566368 8.93677293 19.164552 8.05807978 18.1455828 6.76450707 16.5000611 5.97375748 14.7243865 5.924374 12.856232 5.75007244 11.0451376 6.91803922 10.0931603 6.91803922 9.12275988 6.91803922 7.65704113 5.94167956 6.078704 5.97054522 4.0020239 6.03018355 2.11292761 7.05426409 1.1025805 8.66810556-1.0489945 11.9793209.555886875 16.8456926 2.6169155 19.5222291 3.64809175 20.832853 4.85324075 22.2968536 6.43015388 22.2449369 7.97325813 22.1880461 8.54957763 21.3702844 10.4122364 21.3702844 12.2576069 21.3702844 12.7983153 22.2449369 14.4072239 22.2119278 16.0630466 22.1880362 17.1062935 20.8954793 18.1012913 19.5724449 18.8421897 18.6385775 19.4123098 17.6064507 19.7905335 16.5142961 17.8239189 15.7749348 16.5451744 14.062034 16.542879 12.1640058L16.542879 12.1640058zM13.5039406 4.16410233C14.406764 3.20071877 14.8515508 1.96245243 14.7438441.712267 13.3645308.841040593 12.0904317 1.42701579 11.1754114 2.35343689 10.2718708 3.26747581 9.81413928 4.46328343 9.903034 5.67747811 11.3008422 5.69027114 12.6280317 5.13248485 13.5039406 4.16410233L13.5039406 4.16410233z"/>
      <path d="M9.23627538 10.0269872L3.97036788 10.0269872 2.70576688 13.3461433.475337875 13.3461433 5.46312037 1.06612111 7.78045787 1.06612111 12.7682404 13.3461433 10.499775 13.3461433 9.23627538 10.0269872zM4.51574875 8.49536644L8.68984875 8.49536644 6.63215763 3.10862167 6.57457463 3.10862167 4.51574875 8.49536644zM23.5401551 8.87006633C23.5401551 11.6522854 21.8648859 13.4398109 19.3367741 13.4398109 18.0300152 13.5005728 16.7991198 12.8921748 16.1676732 11.8734109L16.1198357 11.8734109 16.1198357 16.3079644 14.0523657 16.3079644 14.0523657 4.39302022 16.0535975 4.39302022 16.0535975 5.88214844 16.0916228 5.88214844C16.751122 4.86977138 17.9833447 4.26163529 19.2987489 4.29934278 21.8550625 4.29935267 23.5401551 6.09557044 23.5401551 8.87006633zM21.4151021 8.87006633C21.4151021 7.057433 20.3612642 5.86573289 18.7533569 5.86573289 17.1736959 5.86573289 16.1111694 7.082531 16.1111694 8.87006633 16.1111694 10.6740172 17.1736959 11.882123 18.7533569 11.882123 20.3612754 11.882123 21.4151021 10.6991251 21.4151021 8.87006633zM34.6260396 8.87006633C34.6260396 11.6522854 32.9507704 13.4398109 30.4226586 13.4398109 29.1158997 13.5005728 27.8850043 12.8921748 27.2535577 11.8734109L27.2057202 11.8734109 27.2057202 16.3079644 25.1382502 16.3079644 25.1382502 4.39302022 27.1394375 4.39302022 27.1394375 5.88214844 27.1774628 5.88214844C27.8369668 4.869772 29.0691943 4.26163948 30.3846 4.29935267 32.9409915 4.29935267 34.6260396 6.09557044 34.6260396 8.87006633zM32.5009977 8.87006633C32.5009977 7.057433 31.4471487 5.86573289 29.8392414 5.86573289 28.2595804 5.86573289 27.1970539 7.082531 27.1970539 8.87006633 27.1970539 10.6740172 28.2595804 11.882123 29.8392414 11.882123 31.4471599 11.882123 32.5009977 10.6991251 32.5009977 8.87006633L32.5009977 8.87006633zM41.9528979 9.92461744C42.1060891 11.1423847 43.4369729 11.9419508 45.2556322 11.9419508 46.9982634 11.9419508 48.2519952 11.1423451 48.2519952 10.0443224 48.2519952 9.09116211 47.4958401 8.52044467 45.705416 8.12931933L43.9149919 7.74592711C41.3781915 7.20126689 40.200499 6.14670589 40.200499 4.43546333 40.200499 2.31668978 42.2777479.861361778 45.2273859.861361778 48.1465859.861361778 50.1478065 2.31668978 50.2151684 4.43546333L48.1281184 4.43546333C48.0031846 3.20997289 46.8635174 2.47024444 45.198027 2.47024444 43.5325366 2.47024444 42.3928805 3.21867511 42.3928805 4.30799556 42.3928805 5.17617078 43.1207892 5.68703078 44.9014345 6.07810667L46.4235125 6.410314C49.2579956 7.00615911 50.4356881 8.01824733 50.4356881 9.81444533 50.4356881 12.1118716 48.3769067 13.550784 45.1024187 13.550784 42.0386939 13.550784 39.9701447 12.1456718 39.8365112 9.92452844L41.9528979 9.92461744zM54.8976586 2.27424667L54.8976586 4.39302022 56.8130276 4.39302022 56.8130276 5.84834822 54.8976586 5.84834822 54.8976586 10.7841003C54.8976586 11.5508749 55.2811707 11.9081901 56.1231441 11.9081901 56.3505296 11.9046657 56.5775471 11.8904718 56.8032487 11.8656679L56.8032487 13.3123036C56.4246965 13.3751767 56.03993 13.4036517 55.6548929 13.3972887 53.6156804 13.3972887 52.8204098 12.7164584 52.8204098 10.980108L52.8204098 5.84834822 51.3559147 5.84834822 51.3559147 4.39302022 52.8203875 4.39302022 52.8203875 2.27424667 54.8976586 2.27424667zM57.9223125 8.87006633C57.9223125 6.05308778 59.7887871 4.28293711 62.6993319 4.28293711 65.6196444 4.28293711 67.4774304 6.05304822 67.4774304 8.87006633 67.4774304 11.694778 65.6294233 13.4571956 62.6993319 13.4571956 59.7702751 13.4571956 57.9223125 11.6947681 57.9223125 8.87006633zM65.3708449 8.87006633C65.3708449 6.93767856 64.37459 5.79717322 62.6993208 5.79717322 61.0240515 5.79717322 60.0288869 6.94637089 60.0288869 8.87006633 60.0288869 10.8101773 61.0240515 11.9420002 62.6993208 11.9420002 64.37459 11.9420002 65.3708449 10.8101773 65.3708449 8.87006633L65.3708449 8.87006633zM69.1819806 4.39302022L71.1538535 4.39302022 71.1538535 5.916898 71.201691 5.916898C71.4766744 4.93590876 72.4878885 4.26075787 73.6244156 4.29933289 73.8626731 4.29859343 74.1002732 4.32159352 74.3327666 4.36790244L74.3327666 6.08686822C74.0319811 6.0051695 73.7182101 5.96765894 73.4038291 5.975816 72.7960128 5.95389771 72.2077814 6.16921768 71.7935871 6.56523924 71.3793929 6.9612608 71.1806164 7.49841885 71.2494506 8.03567156L71.2494506 13.3461236 69.1819806 13.3461236 69.1819806 4.39302022zM83.8650337 10.7164999C83.5869087 12.3417882 81.8062524 13.4571857 79.5280192 13.4571857 76.5979279 13.4571857 74.7792574 11.7121429 74.7792574 8.912549 74.7792574 6.10426278 76.6077068 4.28292722 79.4411108 4.28292722 82.2277897 4.28292722 83.9801997 5.98450833 83.9801997 8.699127L83.9801997 9.32877233 76.8662851 9.32877233 76.8662851 9.43982456C76.799866 10.1063669 77.0587939 10.7661514 77.5772059 11.2513503 78.0956179 11.7365491 78.8235481 12.0003974 79.5758345 11.9757807 80.579134 12.0593414 81.5250492 11.5472335 81.9018717 10.71649L83.8650337 10.7164999zM76.8760444 8.04438367L81.9116395 8.04438367C81.9491591 7.44544085 81.7038874 6.85974727 81.2349169 6.42840231 80.7659465 5.99705734 80.1157984 5.75917063 79.4411108 5.77205544 78.761086 5.7684482 78.1076134 6.00644647 77.6259396 6.43315065 77.1442659 6.85985484 76.8743021 7.43990844 76.8760444 8.04438367L76.8760444 8.04438367z" transform="translate(26.813 8.9)"/>
    </g>
    <g fill="#FFF" transform="translate(38.938 7.911)">
      <path d="M3.14413637.722877778C4.02183942.666891024 4.88153014.963719123 5.48658444 1.53166213 6.09163873 2.09960514 6.37828054 2.87879874 6.26761362 3.65477511 6.26761362 5.53984456 5.12143825 6.62341956 3.14413637 6.62341956L.7463985 6.62341956.7463985.722877778 3.14413637.722877778zM1.77740787 5.78895556L3.02897037 5.78895556C3.65622229 5.82228309 4.26697876 5.60260835 4.6916556 5.19092677 5.11633244 4.77924519 5.30971732 4.21938559 5.2181145 3.6668 5.30305278 3.1165076 5.10688295 2.56126792 4.68325907 2.1529436 4.25963519 1.74461928 3.65288893 1.5259409 3.02897037 1.55671878L1.77740787 1.55671878 1.77740787 5.78895556zM7.4322565 4.39495844C7.34635718 3.59681144 7.77691308 2.82437736 8.54335022 2.40161295 9.30978736 1.97884855 10.279591 1.97884855 11.0460282 2.40161295 11.8124653 2.82437736 12.2430212 3.59681144 12.1571219 4.39495844 12.2446555 5.19396313 11.8144926 5.96789538 11.0473759 6.39156991 10.2802592 6.81524444 9.30911917 6.81524444 8.54200246 6.39156991 7.77488575 5.96789538 7.34472284 5.19396313 7.4322565 4.39495844zM11.1402301 4.39495844C11.1402301 3.42973367 10.65241 2.86527589 9.796319 2.86527589 8.93695725 2.86527589 8.4535315 3.42973367 8.4535315 4.39496833 8.4535315 5.36792622 8.93699063 5.92803289 9.796319 5.92803289 10.6524323 5.92803289 11.1402301 5.36404978 11.1402301 4.39495844L11.1402301 4.39495844z"/>
      <polygon points="18.438 6.623 17.412 6.623 16.377 3.344 16.299 3.344 15.268 6.623 14.252 6.623 12.871 2.17 13.874 2.17 14.771 5.568 14.845 5.568 15.875 2.17 16.823 2.17 17.853 5.568 17.931 5.568 18.825 2.17 19.813 2.17"/>
      <path d="M20.9745521,2.17043311 L21.9262625,2.17043311 L21.9262625,2.877815 L22.0001436,2.877815 C22.2570586,2.35699485 22.8573948,2.03840406 23.4950655,2.08447889 C23.9888117,2.05148142 24.472648,2.21984779 24.8099635,2.54203982 C25.147279,2.86423186 25.3014685,3.30528572 25.2289969,3.74067 L25.2289969,6.62328111 L24.2403515,6.62328111 L24.2403515,3.96135044 C24.2403515,3.24576078 23.8905259,2.88988933 23.1593575,2.88988933 C22.824457,2.87602424 22.4994449,2.99285499 22.2695295,3.20975215 C22.0396141,3.42664932 21.9277255,3.721981 21.9631975,4.01832033 L21.9631975,6.62333056 L20.9745521,6.62333056 L20.9745521,2.17043311 Z"/>
      <polygon points="26.804 .432 27.793 .432 27.793 6.623 26.804 6.623"/>
      <path d="M29.1672914 4.39495844C29.081458 3.59675922 29.5120818 2.82430559 30.2785759 2.40153467 31.0450699 1.97876374 32.0149234 1.97876374 32.7814174 2.40153467 33.5479114 2.82430559 33.9785352 3.59675922 33.8927019 4.39495844 33.9801244 5.19399173 33.5498826 5.96790211 32.7827279 6.39155798 32.0155731 6.81521385 31.0444202 6.81521385 30.2772654 6.39155798 29.5101106 5.96790211 29.0798689 5.19399173 29.1672914 4.39495844L29.1672914 4.39495844zM32.875265 4.39495844C32.875265 3.42973367 32.3874449 2.86527589 31.5313539 2.86527589 30.6719921 2.86527589 30.1885664 3.42973367 30.1885664 4.39496833 30.1885664 5.36792622 30.6720255 5.92803289 31.5313539 5.92803289 32.387456 5.92803289 32.875265 5.36404978 32.875265 4.39495844L32.875265 4.39495844zM34.9335012 5.36404978C34.9335012 4.56250589 35.6049172 4.10041789 36.7967163 4.03474578L38.1536659 3.965217 38.1536659 3.58086556C38.1536659 3.11055989 37.8038403 2.84499378 37.1280855 2.84499378 36.5761854 2.84499378 36.1937635 3.02510011 36.0840265 3.33992278L35.1268871 3.33992278C35.2279244 2.57507656 36.0373126 2.08449867 37.1737091 2.08449867 38.4296215 2.08449867 39.1379725 2.64025422 39.1379725 3.58086556L39.1379725 6.62334044 38.1862621 6.62334044 38.1862621 5.99756167 38.1080422 5.99756167C37.7848038 6.45455326 37.2099807 6.7216392 36.6033415 6.69670611 36.1780729 6.73602613 35.7539379 6.61360054 35.4357903 6.3596952 35.1176428 6.10578985 34.9351768 5.74410283 34.9335012 5.36404978L34.9335012 5.36404978zM38.1536659 4.983555L38.1536659 4.61127789 36.9303497 4.68080667C36.2404662 4.72184556 35.9275756 4.93044178 35.9275756 5.323001 35.9275756 5.723768 36.3186861 5.95698756 36.8565131 5.95698756 37.1748951 5.98563553 37.4927256 5.89820311 37.7372464 5.71470542 37.9817673 5.53120772 38.1320407 5.26735727 38.1536659 4.983555zM40.437328 4.39495844C40.437328 2.98791789 41.2510661 2.09656311 42.5167462 2.09656311 43.1558517 2.07038735 43.7544331 2.37478984 44.052953 2.87778533L44.1268341 2.87778533 44.1268341.432144444 45.1154795.432144444 45.1154795 6.62332067 44.168119 6.62332067 44.168119 5.91979544 44.0898991 5.91979544C43.768814 6.41861768 43.1628579 6.71787474 42.5167574 6.69670611 41.2423775 6.69675556 40.437328 5.805381 40.437328 4.39495844zM41.458603 4.39495844C41.458603 5.33942644 41.9594505 5.90775078 42.7970851 5.90775078 43.6303476 5.90775078 44.145335 5.33122856 44.145335 4.398825 44.145335 3.47077256 43.6249409 2.88603267 42.7970851 2.88603267 41.9648461 2.88603267 41.4585696 3.45821367 41.4585696 4.39495844L41.458603 4.39495844zM49.205875 4.39495844C49.1199757 3.59681144 49.5505316 2.82437736 50.3169687 2.40161295 51.0834059 1.97884855 52.0532095 1.97884855 52.8196467 2.40161295 53.5860838 2.82437736 54.0166397 3.59681144 53.9307404 4.39495844 54.018274 5.19396313 53.5881111 5.96789538 52.8209944 6.39156991 52.0538777 6.81524444 51.0827377 6.81524444 50.315621 6.39156991 49.5485042 5.96789538 49.1183413 5.19396313 49.205875 4.39495844L49.205875 4.39495844zM52.9138375 4.39495844C52.9138375 3.42973367 52.4260285 2.86527589 51.5699375 2.86527589 50.7105758 2.86527589 50.22715 3.42973367 50.22715 4.39496833 50.22715 5.36792622 50.7106091 5.92803289 51.5699375 5.92803289 52.4260396 5.92803289 52.9138375 5.36404978 52.9138375 4.39495844zM55.2572631 2.17043311L56.2089735 2.17043311 56.2089735 2.877815 56.2828546 2.877815C56.5397696 2.35699485 57.1401058 2.03840406 57.7777765 2.08447889 58.2715227 2.05148142 58.755359 2.21984779 59.0926745 2.54203982 59.42999 2.86423186 59.5841795 3.30528572 59.5117079 3.74067L59.5117079 6.62328111 58.5230625 6.62328111 58.5230625 3.96135044C58.5230625 3.24576078 58.1732369 2.88988933 57.4420685 2.88988933 57.107168 2.87602424 56.7821559 2.99285499 56.5522405 3.20975215 56.3223251 3.42664932 56.2104365 3.721981 56.2459085 4.01832033L56.2459085 6.62333056 55.2572631 6.62333056 55.2572631 2.17043311zM65.0981155 1.06179967L65.0981155 2.19071522 66.1834594 2.19071522 66.1834594 2.93093811 65.0981155 2.93093811 65.0981155 5.22064111C65.0981155 5.68708022 65.3143187 5.89132533 65.8064665 5.89132533 65.9324633 5.8909669 66.0583337 5.88419511 66.1834594 5.87104322L66.1834594 6.60304844C66.005915 6.63128193 65.8260305 6.64630249 65.6456769 6.64795389 64.5462154 6.64795389 64.1083799 6.30415678 64.1083799 5.445643L64.1083799 2.93089856 63.3131204 2.93089856 63.3131204 2.19067567 64.1083799 2.19067567 64.1083799 1.06179967 65.0981155 1.06179967zM67.5338786.432144444L68.5138354.432144444 68.5138354 2.88602278 68.5920553 2.88602278C68.8613111 2.36064447 69.4721542 2.04164768 70.1195178 2.08834544 70.6104602 2.06459953 71.0877469 2.23667256 71.4213756 2.5576957 71.7550042 2.87871884 71.9102255 3.31525557 71.8447605 3.74840311L71.8447605 6.62333056 70.855125 6.62333056 70.855125 3.96519722C70.855125 3.25394878 70.4824375 2.89373611 69.7839099 2.89373611 69.4399571 2.86866152 69.1010897 2.97980995 68.8579008 3.19746691 68.6147119 3.41512387 68.4919991 3.7170952 68.5225685 4.02265167L68.5225685 6.62333056 67.5339231 6.62333056 67.5338786.432144444zM77.6093906 5.42101967C77.3321635 6.2609616 76.417735 6.80365745 75.438714 6.70927489 74.7707289 6.72494897 74.1287579 6.4788348 73.6831314 6.03623233 73.2375049 5.59362985 73.0332736 4.99928421 73.124625 4.41088944 73.0357 3.82085947 73.239166 3.22556147 73.6823111 2.77921977 74.1254561 2.33287806 74.7646747 2.07941257 75.4343641 2.08448878 76.8282488 2.08448878 77.669143 2.93097767 77.669143 4.32926656L77.669143 4.63591111 74.1317379 4.63591111 74.1317379 4.68515778C74.1004344 5.01558525 74.2273914 5.34242055 74.4813864 5.58528469 74.7353813 5.82814883 75.0928465 5.96450699 75.4658701 5.96082444 75.9495538 6.01243919 76.4203868 5.79917379 76.6576803 5.42099L77.6093906 5.42101967zM74.1317156 3.98597378L76.6619968 3.98597378C76.6871981 3.68376976 76.567655 3.38615835 76.3328268 3.16648066 76.0979986 2.94680297 75.7697245 2.82548916 75.4289018 2.83243489 75.0834616 2.82857715 74.7509086 2.94888767 74.5066797 3.16607501 74.2624508 3.38326234 74.1272469 3.67891758 74.1317379 3.98597378L74.1317156 3.98597378z"/>
    </g>
  </g>
</svg>
